<?xml version="1.0" encoding="UTF-8"?>
<svg width="200px" height="200px" viewBox="0 0 200 200" version="1.1" xmlns="http://www.w3.org/2000/svg" xmlns:xlink="http://www.w3.org/1999/xlink">
    <title>favicon</title>
    <defs>
        <rect id="path-1" x="0" y="0" width="200" height="200" rx="24"></rect>
    </defs>
    <g id="页面-1" stroke="none" stroke-width="1" fill="none" fill-rule="evenodd">
        <g id="home" transform="translate(-1411, -371)">
            <g id="favicon" transform="translate(1411, 371)">
                <mask id="mask-2" fill="white">
                    <use xlink:href="#path-1"></use>
                </mask>
                <use id="矩形" fill="#99BCAC" xlink:href="#path-1"></use>
                <circle id="椭圆形" fill="#B1D5C8" mask="url(#mask-2)" cx="136" cy="42" r="70"></circle>
                <path d="M68.6101695,32 C77.4689266,35.919843 81.8983051,38.1446188 81.8983051,38.6743274 C82.6365348,38.6743274 83.1111111,40.5283072 83.3220339,44.2362668 C80.6854991,46.2491592 78.6817326,47.2556054 77.3107345,47.2556054 C75.6233522,46.30213 74.252354,45.8253924 73.1977401,45.8253924 L72.7231638,47.732343 L73.1977401,51.3873318 C71.5103578,52.3408072 69.6647834,53.0294283 67.6610169,53.4531951 C67.6610169,55.1482623 69.8757062,55.995796 74.3050847,55.995796 L80.7909605,55.995796 C84.0602637,56.6314462 85.905838,56.9492713 86.3276836,56.9492713 L92.4971751,55.995796 C94.079096,56.9492713 95.0809793,57.426009 95.5028249,57.426009 L104.677966,55.5190583 C108.052731,49.3744395 110.425612,46.30213 111.79661,46.30213 C116.753296,46.30213 119.969868,47.6264013 121.446328,50.2749439 C121.446328,50.9105942 123.13371,52.8175448 126.508475,55.995796 L126.508475,57.426009 C126.508475,60.3923767 123.608286,62.0874439 117.80791,62.5112108 C112.851224,66.2191704 110.320151,68.2850336 110.214689,68.7088004 C110.214689,69.8741592 109.212806,71.2514013 107.20904,72.8405269 C103.096045,77.6079036 101.039548,81.3158632 101.039548,83.9644058 C101.039548,84.8119395 100.037665,86.3480942 98.0338983,88.57287 L98.5084746,91.1154709 C98.5084746,92.0689462 98.0338983,93.6051009 97.0847458,95.723935 C98.0338983,97.4190022 98.5084746,99.643778 98.5084746,102.398262 L98.5084746,102.875 C98.5084746,103.616592 98.3502825,104.305213 98.0338983,104.940863 C98.0338983,110.661715 99.7212806,113.522141 103.096045,113.522141 L105.627119,113.522141 L107.683616,113.045404 C109.47646,113.681054 110.847458,113.998879 111.79661,113.998879 L114.327684,112.568666 L116.384181,112.568666 C118.177024,112.568666 120.549906,112.409753 123.502825,112.091928 L124.451977,112.568666 C126.455744,112.568666 128.301318,110.661715 129.988701,106.847814 C128.723164,104.305213 127.563089,102.822029 126.508475,102.398262 C126.824859,99.0081278 126.983051,96.4125561 126.983051,94.6115471 L126.983051,93.1813341 C128.143126,91.1684417 129.988701,90.1619955 132.519774,90.1619955 L132.519774,89.0496076 C132.519774,88.202074 130.832392,86.6659193 127.457627,84.4411435 C127.141243,83.8054933 126.983051,83.3287556 126.983051,83.0109305 C128.037665,78.5613789 129.19774,76.3366031 130.463277,76.3366031 C131.623352,75.7009529 132.677966,75.3831278 133.627119,75.3831278 C136.052731,75.3831278 138.900188,77.3960202 142.169492,81.4218049 C143.856874,82.7990471 144.700565,84.3352018 144.700565,86.0302691 C144.700565,87.9372197 143.382298,89.632287 140.745763,91.1154709 L139.638418,93.1813341 C139.954802,95.5120516 140.112994,97.3660314 140.112994,98.7432735 L139.163842,99.2200112 L139.638418,101.285874 L139.163842,103.351738 C140.218456,105.470572 141.062147,108.013173 141.694915,110.97954 C140.323917,113.628083 139.638418,115.32315 139.638418,116.064742 C140.376648,118.501401 140.745763,119.878643 140.745763,120.196469 L140.745763,121.626682 C140.745763,124.487108 139.216573,126.552971 136.158192,127.824271 L132.519774,128.301009 L130.463277,128.301009 C127.088512,126.711883 125.40113,124.857904 125.40113,122.73907 L125.40113,120.196469 C122.553672,119.137052 115.962335,118.289518 105.627119,117.653868 C104.361582,117.971693 103.201507,118.130605 102.146893,118.130605 C101.830508,118.130605 100.828625,117.971693 99.1412429,117.653868 C97.9811676,118.289518 96.9265537,118.607343 95.9774011,118.607343 L94.079096,118.607343 C89.9661017,117.653868 87.9096045,116.806334 87.9096045,116.064742 L89.0169492,112.568666 C89.0169492,112.250841 88.6478343,110.555774 87.9096045,107.483464 C87.9096045,107.059697 88.0677966,106.529989 88.3841808,105.894339 C88.0677966,101.762612 87.3822976,99.2200112 86.3276836,98.2665359 C87.6986817,96.3595852 88.5951036,94.5056054 89.0169492,92.7045964 C88.3841808,91.5392377 87.8568738,90.003083 87.4350282,88.0961323 C87.4350282,84.7059978 90.6516008,78.4024664 97.0847458,69.1855381 C99.7212806,66.4310538 101.039548,64.577074 101.039548,63.6235987 C97.6647834,62.2463565 95.819209,61.0280269 95.5028249,59.9686099 C93.4990584,60.7102018 92.4971751,61.2399103 92.4971751,61.5577354 L87.4350282,61.0809978 L83.7966102,61.0809978 C83.480226,61.0809978 83.3220339,60.9220852 83.3220339,60.6042601 L82.3728814,61.0809978 L77.3107345,61.0809978 C73.8305085,62.0344731 71.6158192,62.5112108 70.6666667,62.5112108 C70.3502825,62.5112108 68.9792844,62.3522982 66.5536723,62.0344731 C64.9717514,62.0344731 62.2824859,64.7889574 58.4858757,70.297926 C58.4858757,71.5692265 56.7984934,73.5821188 53.4237288,76.3366031 L52.4745763,76.3366031 L49.9435028,75.8598655 L49.9435028,76.3366031 C52.2636535,79.0910874 54.4256121,80.4683296 56.4293785,80.4683296 L58.4858757,82.3752803 C59.1186441,82.0574552 59.645951,81.8985426 60.0677966,81.8985426 C74.1996234,82.3223094 81.2655367,83.169843 81.2655367,84.4411435 L81.2655367,85.5535314 C81.0546139,86.5070067 79.8945386,86.9837444 77.7853107,86.9837444 C75.4651601,86.9837444 73.0922787,86.5070067 70.6666667,85.5535314 L67.6610169,86.0302691 C67.2391714,86.0302691 65.393597,85.7124439 62.1242938,85.0767937 C58.0112994,85.1827354 55.9548023,85.6594731 55.9548023,86.5070067 C56.2711864,88.4139574 56.4293785,89.7911996 56.4293785,90.6387332 C56.4293785,91.4862668 55.5856874,92.8105381 53.8983051,94.6115471 C55.6911488,94.6115471 56.9039548,96.3595852 57.5367232,99.8556614 C57.5367232,104.517096 56.4821092,108.383969 54.3728814,111.456278 C54.9001883,113.151345 56.4293785,113.998879 58.960452,113.998879 L59.4350282,113.045404 C64.7080979,113.681054 71.826742,113.998879 80.7909605,113.998879 C83.2165725,114.528587 84.4293785,115.217209 84.4293785,116.064742 C84.4293785,117.441984 81.212806,118.289518 74.779661,118.607343 C74.779661,118.925168 74.4105461,119.084081 73.6723164,119.084081 C73.2504708,119.084081 70.0338983,118.236547 64.0225989,116.54148 L61.4915254,117.17713 L58.4858757,115.588004 C56.7984934,118.236547 55.9548023,120.620235 55.9548023,122.73907 C56.5875706,124.01037 56.9039548,125.387612 56.9039548,126.870796 L56.9039548,127.824271 L55.9548023,129.413397 L56.9039548,135.928812 L56.4293785,139.5838 C56.7457627,141.384809 56.9039548,142.709081 56.9039548,143.556614 C55.6384181,145.675448 55.0056497,147.211603 55.0056497,148.165078 C55.0056497,153.25028 56.007533,156.32259 58.0112994,157.382007 L74.3050847,160.401345 C77.4689266,160.08352 80.4745763,159.924608 83.3220339,159.924608 L83.3220339,160.401345 L84.4293785,159.924608 L86.3276836,159.924608 C87.2768362,159.924608 88.3314501,160.242433 89.4915254,160.878083 C90.5461394,160.242433 91.5480226,159.924608 92.4971751,159.924608 L95.5028249,159.924608 C96.2410546,159.924608 96.9265537,160.08352 97.559322,160.401345 C99.1412429,159.765695 100.670433,159.44787 102.146893,159.44787 C103.834275,159.44787 104.677966,159.765695 104.677966,160.401345 C106.365348,159.765695 107.736347,159.44787 108.79096,159.44787 C110.478343,159.765695 111.480226,159.924608 111.79661,159.924608 C112.112994,159.924608 112.587571,159.765695 113.220339,159.44787 L116.858757,159.924608 C127.721281,158.22954 136.685499,157.064182 143.751412,156.428531 C149.65725,150.919563 152.873823,146.840807 153.40113,144.192265 L152.293785,137.994675 C152.715631,137.359025 152.926554,136.670404 152.926554,135.928812 L152.293785,134.975336 C152.293785,134.233744 153.506591,132.856502 155.932203,130.84361 L155.932203,130.366872 L155.457627,128.301009 C155.879473,126.923767 156.354049,126.235146 156.881356,126.235146 L157.355932,126.235146 C158.832392,126.235146 160.045198,131.002522 160.99435,140.537276 C160.99435,141.384809 160.625235,143.079877 159.887006,145.622478 C160.625235,146.787836 160.99435,147.794283 160.99435,148.641816 C159.939736,151.3963 159.412429,152.932455 159.412429,153.25028 C162.154426,156.110706 163.525424,159.024103 163.525424,161.990471 C163.525424,163.15583 163.683616,164.691984 164,166.598935 C164,168.399944 160.94162,170.095011 154.824859,171.684137 C153.664783,170.942545 152.346516,170.571749 150.870056,170.571749 C149.077213,170.571749 142.485876,170.783632 131.096045,171.207399 C129.93597,171.843049 128.881356,172.160874 127.932203,172.160874 L126.983051,172.160874 C126.666667,172.160874 125.295669,171.843049 122.870056,171.207399 C121.499058,171.207399 119.495292,171.525224 116.858757,172.160874 L114.327684,170.571749 L113.853107,170.571749 C112.482109,171.631166 109.265537,172.4787 104.20339,173.11435 C101.777778,172.4787 99.7212806,172.160874 98.0338983,172.160874 C96.346516,172.160874 93.1299435,172.690583 88.3841808,173.75 C84.7984934,171.631166 82.4256121,170.571749 81.2655367,170.571749 C80.9491525,171.631166 79.9472693,172.160874 78.259887,172.160874 L75.2542373,171.684137 L71.6158192,172.160874 C55.0583804,171.419283 46.779661,169.194507 46.779661,165.486547 C46.1468927,164.533072 44.6177024,158.759249 42.1920904,148.165078 L43.299435,140.060538 L42.8248588,137.0412 L43.7740113,134.975336 C43.7740113,134.657511 43.6158192,133.651065 43.299435,131.955998 L43.7740113,128.777747 C43.4576271,126.129204 43.299435,123.427691 43.299435,120.673206 C44.2485876,117.81278 44.7231638,113.575112 44.7231638,107.960202 L44.7231638,106.847814 C44.7231638,104.72898 44.5649718,102.557175 44.2485876,100.332399 L45.3559322,92.7045964 C44.9340866,92.0689462 44.7231638,91.2214126 44.7231638,90.1619955 C45.4613936,90.1619955 45.8305085,89.632287 45.8305085,88.57287 C45.0922787,87.5134529 44.7231638,86.3480942 44.7231638,85.0767937 L43.7740113,85.0767937 C38.079096,89.8441704 32.8587571,92.7045964 28.1129944,93.6580717 C28.1129944,94.1877803 27.5856874,94.7174888 26.5310734,95.2471973 L25.5819209,95.2471973 C24.8436911,95.2471973 24.3163842,93.7110426 24,90.6387332 C26.0037665,90.5327915 28.5348399,89.1555493 31.5932203,86.5070067 C34.0188324,85.0238229 36.7080979,81.7926009 39.6610169,76.8133408 C40.2937853,76.8133408 42.6666667,73.7410314 46.779661,67.5964126 C47.306968,66.8548206 49.3634652,65.1597534 52.9491525,62.5112108 L53.4237288,61.5577354 C53.1073446,60.9220852 52.9491525,60.2334641 52.9491525,59.4918722 C54.0037665,57.2670964 56.007533,54.565583 58.960452,51.3873318 C58.960452,50.5397982 60.3314501,46.7788677 63.0734463,40.1045404 C64.1280603,34.7015135 65.9736347,32 68.6101695,32 Z M107.125,81 L112.867188,82.2992424 L119.429688,81 L120.25,82.8560606 L120.25,83.4128788 C120.25,84.6502525 115.601562,85.8876263 106.304688,87.125 C103.934896,86.3825758 102.75,85.5782828 102.75,84.7121212 L102.75,83.4128788 C102.75,82.2992424 104.208333,81.4949495 107.125,81 Z" id="形状" fill="#FFFFFF" fill-rule="nonzero" mask="url(#mask-2)"></path>
            </g>
        </g>
    </g>
</svg>