<?xml version="1.0" encoding="UTF-8"?>
<svg width="200px" height="200px" viewBox="0 0 200 200" version="1.1" xmlns="http://www.w3.org/2000/svg" xmlns:xlink="http://www.w3.org/1999/xlink">
    <title>favicon</title>
    <defs>
        <rect id="path-1" x="0" y="0" width="200" height="200" rx="40"></rect>
    </defs>
    <g id="页面-1" stroke="none" stroke-width="1" fill="none" fill-rule="evenodd">
        <g id="home" transform="translate(-1033, -471)">
            <g id="favicon" transform="translate(1033, 471)">
                <mask id="mask-2" fill="white">
                    <use xlink:href="#path-1"></use>
                </mask>
                <use id="矩形" fill="#DC0000" xlink:href="#path-1"></use>
                <circle id="椭圆形" fill="#FFFBF0" mask="url(#mask-2)" cx="153" cy="35" r="20"></circle>
                <path d="M99.0939552,186.250974 C98.5834428,186.250974 98.2431012,186.081233 98.0729303,185.741751 C97.9027595,185.402269 98.0303876,185.062787 98.4558147,184.723305 C103.390768,180.055426 108.113008,174.263012 112.622535,167.346064 C117.132061,160.429116 120.705648,153.830432 123.343296,147.550013 C120.280221,148.313848 117.302232,149.162553 114.409328,150.096129 C113.898816,150.26587 113.17559,150.35074 112.23965,150.35074 C110.452857,150.35074 109.09149,149.883953 108.155551,148.950377 C106.538928,147.762189 105.220104,146.658872 104.199079,145.640426 C103.178055,144.62198 102.199572,143.221616 101.263633,141.439335 C100.923291,140.845241 100.753121,140.293583 100.753121,139.78436 C100.753121,138.850784 101.391261,138.383996 102.667542,138.383996 C108.45335,138.299125 116.791719,137.195808 127.682651,135.074045 C127.257224,132.018706 126.789254,129.727202 126.278742,128.199532 L126.278742,127.944921 C126.278742,127.690309 126.363827,127.456915 126.533998,127.244739 C126.704169,127.032563 126.916883,126.926474 127.172139,126.926474 C128.618591,127.011345 130.256485,127.244739 132.085821,127.626656 C133.915157,128.008574 135.595594,128.496579 137.127131,129.090673 C140.700718,124.592535 143.529808,120.094397 145.6144,115.596259 C147.698993,111.098121 148.783832,107.406253 148.868917,104.520655 C148.868917,103.247597 149.017817,102.483762 149.315615,102.22915 C149.613414,101.974539 150.272826,101.932104 151.293851,102.101845 C152.740303,102.356456 154.633453,103.247597 156.973302,104.775266 C159.31315,106.302936 161.163758,107.7033 162.525125,108.976357 C163.120722,109.485581 163.418521,110.12211 163.418521,110.885944 C163.418521,111.904391 162.993094,112.880402 162.14224,113.813978 C160.015105,116.190352 157.015845,118.969862 153.144459,122.152507 C149.273073,125.335152 144.869903,128.114662 139.93495,130.491037 C140.870889,131.08513 141.50903,131.636789 141.849371,132.146012 C146.954495,131.042695 150.315369,130.236425 151.931992,129.727202 C153.123187,129.47259 154.101669,129.345284 154.867438,129.345284 C155.973548,129.345284 157.122201,129.642331 158.313397,130.236425 C159.93002,131.08513 161.291386,132.379406 162.397496,134.119252 C163.503607,135.859098 164.311918,137.662596 164.82243,139.529748 C165.162772,140.463324 165.013873,141.248376 164.375732,141.884905 C163.737592,142.521434 162.652753,142.839699 161.121215,142.839699 C155.165237,142.839699 148.613661,143.306487 141.466487,144.240062 L141.466487,147.550013 C143.423451,147.889495 145.720757,148.483589 148.358405,149.332294 C150.996052,150.180999 153.378444,151.114575 155.505579,152.133022 C157.462543,152.981727 158.951538,154.191132 159.972562,155.761237 C160.993587,157.331341 161.5041,159.04997 161.5041,160.917121 C161.5041,162.784273 160.972316,164.608989 159.908748,166.39127 C158.845181,168.173552 157.377458,169.573915 155.505579,170.592362 C154.995066,170.762103 154.569639,170.846973 154.229298,170.846973 C152.782846,170.846973 151.846906,170.380185 151.421479,169.44661 C149.634686,166.136659 146.358898,161.256603 141.594115,154.806443 C141.594115,166.942929 141.6792,175.98164 141.849371,181.922577 C142.019542,186.760197 141.572844,190.982506 140.509276,194.589504 C139.445708,198.196501 138.020528,200 136.233734,200 C134.106599,200 131.468952,198.217719 128.320792,194.653157 C126.363827,192.191911 125.598059,189.60336 126.023486,186.887503 C127.044511,182.219624 127.682651,177.169828 127.937907,171.738114 C127.937907,171.228891 127.98045,170.316532 128.065536,169.001039 C128.150621,167.685546 128.235706,165.924483 128.320792,163.717849 C124.151607,169.658786 119.599538,174.687365 114.664584,178.803585 C109.729631,182.919806 104.624507,185.402269 99.3492114,186.250974 L99.0939552,186.250974 Z M105.248276,114.888112 C105.082759,114.72028 105,114.468531 105,114.132867 C105,113.797203 105.144828,113.566434 105.434483,113.440559 C105.724138,113.314685 106.241379,113.20979 106.986207,113.125874 C107.731034,113.041958 108.848276,113 110.337931,113 C113.234483,113 115.882759,113.629371 118.282759,114.888112 C119.772414,115.727273 120.931034,116.86014 121.758621,118.286713 C122.586207,119.713287 123,121.223776 123,122.818182 C123,124.412587 122.524138,125.902098 121.572414,127.286713 C120.62069,128.671329 119.234483,129.825175 117.413793,130.748252 C117.082759,130.916084 116.793103,131 116.544828,131 C115.717241,131 114.806897,130.412587 113.813793,129.237762 C110.834483,123.027972 107.97931,118.244755 105.248276,114.888112 Z M108.917293,103.884522 C112.240602,102.934897 116.309524,101.424132 121.12406,99.3522243 C125.938596,97.2803169 130.454887,94.8630916 134.672932,92.1005484 C138.890977,89.3380053 141.85213,86.6186269 143.556391,83.9424132 C144.238095,82.6474711 144.962406,82 145.729323,82 C146.325815,82 147.092732,82.4316474 148.030075,83.2949421 C149.904762,85.0215316 151.758145,86.9639447 153.590226,89.1221816 C155.422306,91.2804184 156.721805,93.0070079 157.488722,94.30195 C157.829574,94.9925858 158,95.5537274 158,95.9853748 C158,97.3666464 156.807018,98.575259 154.421053,99.6112127 C149.393484,101.855779 143.02381,103.668698 135.31203,105.04997 C127.600251,106.431241 119.015038,107.078712 109.556391,106.992383 C108.874687,106.992383 108.278195,106.819724 107.766917,106.474406 C107.255639,106.129088 107,105.740605 107,105.308958 C107,105.04997 107.170426,104.769399 107.511278,104.467246 C107.85213,104.165092 108.320802,103.970851 108.917293,103.884522 Z M123,108.431507 C123,107.477169 123.916667,107 125.75,107 C127.583333,107 129.5,107.368721 131.5,108.106164 C133.5,108.843607 135.125,109.906393 136.375,111.294521 C138.125,113.203196 139,115.372146 139,117.80137 C139,119.710046 138.458333,121.380137 137.375,122.811644 C136.291667,124.243151 134.791667,125.262557 132.875,125.869863 L132.25,126 C131.666667,126 131.083333,125.804795 130.5,125.414384 C129.916667,125.023973 129.541667,124.655251 129.375,124.308219 L127.375,118.972603 C127.041667,118.105023 126.458333,116.608447 125.625,114.482877 C124.791667,112.357306 123.958333,110.513699 123.125,108.952055 L123,108.431507 Z M152.530201,196.705 C160.436242,190.755 166.982103,184.74125 172.167785,178.66375 C177.353468,172.58625 182.496644,165.4675 187.597315,157.3075 C189.552573,153.8225 190.700224,151.485 191.040268,150.295 C191.465324,148.765 192.357942,148 193.718121,148 C194.228188,148 194.993289,148.2125 196.013423,148.6375 C197.118568,149.1475 199.137584,150.69875 202.07047,153.29125 C205.003356,155.88375 206.852349,157.7325 207.61745,158.8375 C207.872483,159.3475 208,159.815 208,160.24 C208,161.005 207.702461,161.79125 207.107383,162.59875 C206.512304,163.40625 205.768456,164.29875 204.875839,165.27625 C203.983221,166.25375 203.239374,167.0825 202.644295,167.7625 C197.543624,173.9675 192.889262,178.8975 188.681208,182.5525 C184.473154,186.2075 179.755034,189.28875 174.526846,191.79625 C169.298658,194.30375 162.646532,196.6625 154.57047,198.8725 L152.912752,199 C151.637584,199 151,198.7875 151,198.3625 C151,197.9375 151.510067,197.385 152.530201,196.705 Z M163.142857,123.21519 C166.867725,120.008439 170.021164,116.822785 172.603175,113.658228 C175.185185,110.493671 177.216931,107.687764 178.698413,105.240506 C180.179894,102.793249 181.978836,99.5864979 184.095238,95.6202532 C185.619048,92.2447257 186.42328,89.9240506 186.507937,88.6582278 C186.592593,87.7299578 186.804233,87.0548523 187.142857,86.6329114 C187.481481,86.2109705 187.989418,86 188.666667,86 L190.31746,86.2531646 C192.010582,86.8438819 193.89418,87.814346 195.968254,89.164557 C198.042328,90.5147679 199.587302,91.8227848 200.603175,93.0886076 C201.534392,94.1012658 202,95.1561181 202,96.2531646 C202,97.0126582 201.78836,97.7510549 201.365079,98.4683544 C200.941799,99.185654 200.222222,100.219409 199.206349,101.56962 C190.232804,113.468354 178.677249,121.56962 164.539683,125.873418 C164.37037,125.957806 164.031746,126 163.52381,126 C162.507937,126 162,125.704641 162,125.113924 C162,124.607595 162.380952,123.974684 163.142857,123.21519 Z M163.513514,149.937931 C169.399399,145.685057 173.876877,141.751149 176.945946,138.136207 C180.015015,134.521264 183.189189,130.11954 186.468468,124.931034 C188.066066,122.294253 189.117117,120.167816 189.621622,118.551724 C189.957958,117.616092 190.315315,116.956897 190.693694,116.574138 C191.072072,116.191379 191.555556,116 192.144144,116 C193.489489,116 195.486486,116.956897 198.135135,118.87069 C200.783784,120.784483 202.528529,122.506897 203.369369,124.037931 C203.78979,124.803448 204,125.611494 204,126.462069 C204,127.397701 203.747748,128.227011 203.243243,128.95 C202.738739,129.672989 202.066066,130.45977 201.225225,131.310345 C200.384384,132.16092 199.66967,132.883908 199.081081,133.47931 C193.615616,139.008046 188.045045,143.324713 182.369369,146.42931 C176.693694,149.533908 170.618619,151.681609 164.144144,152.872414 L163.63964,153 C163.219219,153 162.840841,152.893678 162.504505,152.681034 C162.168168,152.468391 162,152.191954 162,151.851724 C162,151.256322 162.504505,150.618391 163.513514,149.937931 Z" id="形状" fill="#FFFBF0" fill-rule="nonzero" mask="url(#mask-2)"></path>
                <path d="M-13.507378,76.76875 C-15.081347,77.1631944 -16.2618237,77.3604167 -17.0488082,77.3604167 C-19.0162694,77.3604167 -20,76.8180556 -20,75.7333333 C-20,74.9444444 -19.3113886,73.8597222 -17.9341657,72.4791667 C-10.5561862,65.3791667 -4.0143776,57.5888889 1.69125993,49.1083333 C7.39689747,40.6277778 11.9220583,32.615625 15.2667423,25.071875 C18.6114264,17.528125 20.6772607,11.4881944 21.4642452,6.95208333 C21.8577374,4.58541667 22.4233825,2.83506944 23.1611805,1.70104167 C23.8989784,0.567013889 24.9073023,0 26.1861521,0 C27.1698827,0 28.5962921,0.394444444 30.4653802,1.18333333 C33.1214529,2.16944444 35.7529323,3.62395833 38.3598184,5.546875 C40.9667045,7.46979167 42.8603859,9.36805556 44.0408627,11.2416667 C44.8278471,12.425 45.2213394,13.5097222 45.2213394,14.4958333 C45.2213394,15.3833333 44.8278471,16.3201389 44.0408627,17.30625 C43.9424896,17.5034722 43.1555051,18.5388889 41.6799092,20.4125 L37.8433598,25.4416667 C39.4173288,24.85 40.5978055,24.4555556 41.38479,24.2583333 C41.9750284,24.0611111 43.0817253,23.6913194 44.7048808,23.1489583 C46.3280363,22.6065972 47.779039,22.2121528 49.0578888,21.965625 C50.3367386,21.7190972 51.6155883,21.5958333 52.8944381,21.5958333 C55.1570185,21.5958333 57.8622777,22.3107639 61.0102157,23.740625 C64.1581536,25.1704861 66.7650397,26.625 68.830874,28.1041667 C71.4869467,30.2736111 72.814983,32.0486111 72.814983,33.4291667 C72.814983,35.0069444 71.5361332,36.5354167 68.9784336,38.0145833 C63.7646614,40.8743056 58.7476353,44.7201389 53.9273553,49.5520833 L58.7968218,48.5166667 C59.6821793,48.2208333 61.2069618,47.7770833 63.3711691,47.1854167 C65.5353765,46.59375 67.6012107,45.8541667 69.568672,44.9666667 C71.3393871,44.0791667 72.7166099,43.8326389 73.7003405,44.2270833 C75.6678017,44.7201389 78.102535,45.928125 81.0045403,47.8510417 C83.9065456,49.7739583 86.0953462,51.475 87.5709421,52.9541667 C88.7514188,54.1375 89.3416572,55.3208333 89.3416572,56.5041667 C89.3416572,57.2930556 89.0957246,58.0819444 88.6038593,58.8708333 C86.538025,62.6180556 83.5376466,71 79.6027242,84.0166667 C78.7173666,86.975 77.7582293,89.1197917 76.7253121,90.4510417 C75.692395,91.7822917 74.2413924,92.9409722 72.3723042,93.9270833 C71.978812,94.1243056 71.4377601,94.2229167 70.7491487,94.2229167 C69.8637911,94.2229167 68.9784336,93.9024306 68.093076,93.2614583 C67.2077185,92.6204861 66.2239879,91.6097222 65.1418842,90.2291667 C61.1085887,90.525 52.4517594,91.3631944 39.1713961,92.74375 C31.8917896,93.5326389 26.8747635,94.075 24.1203178,94.3708333 L23.9727582,103.245833 C23.9727582,108.077778 24.2678774,111.726389 24.8581158,114.191667 C25.4483541,116.656944 26.7517972,118.555208 28.7684449,119.886458 C30.7850927,121.217708 33.9576239,122.080556 38.2860386,122.475 C39.9583806,122.672222 42.6144533,122.770833 46.2542565,122.770833 C52.0582671,122.770833 58.2803632,122.425694 64.9205448,121.735417 C71.5607264,121.045139 76.5039728,120.404167 79.7502838,119.8125 C83.1933409,119.122222 85.7510405,118.012847 87.4233825,116.484375 C89.0957246,114.955903 90.2762013,113.057639 90.9648127,110.789583 C91.6534241,108.521528 92.4895952,104.626389 93.4733258,99.1041667 C93.9651911,97.3291667 94.8013621,96.4416667 95.9818388,96.4416667 C97.1623156,96.4416667 98.0476731,97.3291667 98.6379115,99.1041667 C98.9330306,99.9916667 99.4986757,101.717361 100.334847,104.28125 C101.171018,106.845139 102.130155,109.261111 103.212259,111.529167 C104.294362,113.797222 105.622399,116.114583 107.196368,118.48125 C109.065456,121.340972 110,123.80625 110,125.877083 C110,129.427083 107.245554,132.336111 101.736663,134.604167 C95.8342792,136.970833 88.4317064,138.795139 79.5289444,140.077083 C70.6261824,141.359028 61.600454,142 52.4517594,142 C39.0730231,142 28.7438517,140.816667 21.4642452,138.45 C15.2667423,136.379167 10.9137344,133.174306 8.40522134,128.835417 C5.89670829,124.496528 4.74082482,118.974306 4.93757094,112.26875 L5.08513053,109.1625 C5.77374196,97.2305556 6.11804767,88.1090278 6.11804767,81.7979167 C6.11804767,77.2618056 5.97048808,73.0215278 5.6753689,69.0770833 C5.6753689,68.6826389 5.57699584,67.89375 5.38024972,66.7104167 C-0.522133939,71.1479167 -6.81800984,74.5006944 -13.507378,76.76875 Z M19.0224719,56 L35.6741573,53.0731707 L43.5617978,39.6097561 C43.8539326,39.3170732 44,39.0243902 44,38.7317073 C44,38.3414634 43.7078652,38.1463415 43.1235955,38.1463415 L41.6629213,38.4390244 C40.7865169,38.7317073 39.7883895,39.0731707 38.6685393,39.4634146 C37.5486891,39.8536585 36.5992509,40.0487805 35.8202247,40.0487805 C34.8464419,40.0487805 33.6779026,39.7073171 32.3146067,39.0243902 L30.7078652,38 C26.3258427,44.9268293 22.0898876,50.6829268 18,55.2682927 L19.0224719,56 Z M24,82 C25.4063927,81.8974359 28.9223744,81.4871795 34.5479452,80.7692308 C34.8493151,76.7692308 35,73.6923077 35,71.5384615 C35,69.0769231 34.8995434,67.2307692 34.6986301,66 C32.086758,66.5128205 30.0022831,66.8717949 28.4452055,67.0769231 C26.8881279,67.2820513 25.7579909,67.4358974 25.0547945,67.5384615 L24.7534247,71.8461538 C24.3515982,75.025641 24.1004566,78.4102564 24,82 Z M64.8118812,76.3641805 L65.1089109,75.4719153 C65.4059406,73.8856661 65.7029703,69.573051 66,62.53407 C66,61.1461019 65.2079208,60.6999693 63.6237624,61.1956722 C55.9009901,62.3853591 52.039604,62.9802026 52.039604,62.9802026 C52.6336634,63.575046 52.9306931,64.4673112 52.9306931,65.6569982 C52.9306931,66.5492634 52.7821782,67.5902394 52.4851485,68.7799263 L51,78 L64.8118812,76.3641805 Z" id="形状" fill="#FFFBF0" fill-rule="nonzero" mask="url(#mask-2)"></path>
            </g>
        </g>
    </g>
</svg>