<?xml version="1.0" encoding="UTF-8"?>
<svg width="200px" height="200px" viewBox="0 0 200 200" version="1.1" xmlns="http://www.w3.org/2000/svg" xmlns:xlink="http://www.w3.org/1999/xlink">
    <title>编组</title>
    <defs>
        <rect id="path-1" x="0" y="0" width="200" height="200" rx="40"></rect>
    </defs>
    <g id="页面-1" stroke="none" stroke-width="1" fill="none" fill-rule="evenodd">
        <g id="home" transform="translate(-1033, -471)">
            <g id="编组" transform="translate(1033, 471)">
                <mask id="mask-2" fill="white">
                    <use xlink:href="#path-1"></use>
                </mask>
                <use id="矩形" fill="#DC0000" xlink:href="#path-1"></use>
                <circle id="椭圆形" fill="#FFFBF0" mask="url(#mask-2)" cx="166" cy="40" r="20"></circle>
                <path d="M132.76,181.72 C132.44,181.72 132.226667,181.613333 132.12,181.4 C132.013333,181.186667 132.093333,180.973333 132.36,180.76 C135.453333,177.826667 138.413333,174.186667 141.24,169.84 C144.066667,165.493333 146.306667,161.346667 147.96,157.4 C146.04,157.88 144.173333,158.413333 142.36,159 C142.04,159.106667 141.586667,159.16 141,159.16 C139.88,159.16 139.026667,158.866667 138.44,158.28 C137.426667,157.533333 136.6,156.84 135.96,156.2 C135.32,155.56 134.706667,154.68 134.12,153.56 C133.906667,153.186667 133.8,152.84 133.8,152.52 C133.8,151.933333 134.2,151.64 135,151.64 C138.626667,151.586667 143.853333,150.893333 150.68,149.56 C150.413333,147.64 150.12,146.2 149.8,145.24 L149.8,145.08 C149.8,144.92 149.853333,144.773333 149.96,144.64 C150.066667,144.506667 150.2,144.44 150.36,144.44 C151.266667,144.493333 152.293333,144.64 153.44,144.88 C154.586667,145.12 155.64,145.426667 156.6,145.8 C158.84,142.973333 160.613333,140.146667 161.92,137.32 C163.226667,134.493333 163.906667,132.173333 163.96,130.36 C163.96,129.56 164.053333,129.08 164.24,128.92 C164.426667,128.76 164.84,128.733333 165.48,128.84 C166.386667,129 167.573333,129.56 169.04,130.52 C170.506667,131.48 171.666667,132.36 172.52,133.16 C172.893333,133.48 173.08,133.88 173.08,134.36 C173.08,135 172.813333,135.613333 172.28,136.2 C170.946667,137.693333 169.066667,139.44 166.64,141.44 C164.213333,143.44 161.453333,145.186667 158.36,146.68 C158.946667,147.053333 159.346667,147.4 159.56,147.72 C162.76,147.026667 164.866667,146.52 165.88,146.2 C166.626667,146.04 167.24,145.96 167.72,145.96 C168.413333,145.96 169.133333,146.146667 169.88,146.52 C170.893333,147.053333 171.746667,147.866667 172.44,148.96 C173.133333,150.053333 173.64,151.186667 173.96,152.36 C174.173333,152.946667 174.08,153.44 173.68,153.84 C173.28,154.24 172.6,154.44 171.64,154.44 C167.906667,154.44 163.8,154.733333 159.32,155.32 L159.32,157.4 C160.546667,157.613333 161.986667,157.986667 163.64,158.52 C165.293333,159.053333 166.786667,159.64 168.12,160.28 C169.346667,160.813333 170.28,161.573333 170.92,162.56 C171.56,163.546667 171.88,164.626667 171.88,165.8 C171.88,166.973333 171.546667,168.12 170.88,169.24 C170.213333,170.36 169.293333,171.24 168.12,171.88 C167.8,171.986667 167.533333,172.04 167.32,172.04 C166.413333,172.04 165.826667,171.746667 165.56,171.16 C164.44,169.08 162.386667,166.013333 159.4,161.96 C159.4,169.586667 159.453333,175.266667 159.56,179 C159.666667,182.04 159.386667,184.693333 158.72,186.96 C158.053333,189.226667 157.16,190.36 156.04,190.36 C154.706667,190.36 153.053333,189.24 151.08,187 C149.853333,185.453333 149.373333,183.826667 149.64,182.12 C150.28,179.186667 150.68,176.013333 150.84,172.6 C150.84,172.28 150.866667,171.706667 150.92,170.88 C150.973333,170.053333 151.026667,168.946667 151.08,167.56 C148.466667,171.293333 145.613333,174.453333 142.52,177.04 C139.426667,179.626667 136.226667,181.186667 132.92,181.72 L132.76,181.72 Z M136.52,136.44 C136.413333,136.333333 136.36,136.173333 136.36,135.96 C136.36,135.746667 136.453333,135.6 136.64,135.52 C136.826667,135.44 137.16,135.373333 137.64,135.32 C138.12,135.266667 138.84,135.24 139.8,135.24 C141.666667,135.24 143.373333,135.64 144.92,136.44 C145.88,136.973333 146.626667,137.693333 147.16,138.6 C147.693333,139.506667 147.96,140.466667 147.96,141.48 C147.96,142.493333 147.653333,143.44 147.04,144.32 C146.426667,145.2 145.533333,145.933333 144.36,146.52 C144.146667,146.626667 143.96,146.68 143.8,146.68 C143.266667,146.68 142.68,146.306667 142.04,145.56 C140.12,141.613333 138.28,138.573333 136.52,136.44 Z M138.84,129.64 C140.92,129.053333 143.466667,128.12 146.48,126.84 C149.493333,125.56 152.32,124.066667 154.96,122.36 C157.6,120.653333 159.453333,118.973333 160.52,117.32 C160.946667,116.52 161.4,116.12 161.88,116.12 C162.253333,116.12 162.733333,116.386667 163.32,116.92 C164.493333,117.986667 165.653333,119.186667 166.8,120.52 C167.946667,121.853333 168.76,122.92 169.24,123.72 C169.453333,124.146667 169.56,124.493333 169.56,124.76 C169.56,125.613333 168.813333,126.36 167.32,127 C164.173333,128.386667 160.186667,129.506667 155.36,130.36 C150.533333,131.213333 145.16,131.613333 139.24,131.56 C138.813333,131.56 138.44,131.453333 138.12,131.24 C137.8,131.026667 137.64,130.786667 137.64,130.52 C137.64,130.36 137.746667,130.186667 137.96,130 C138.173333,129.813333 138.466667,129.693333 138.84,129.64 Z M147.64,132.76 C147.64,132.173333 148.226667,131.88 149.4,131.88 C150.573333,131.88 151.8,132.106667 153.08,132.56 C154.36,133.013333 155.4,133.666667 156.2,134.52 C157.32,135.693333 157.88,137.026667 157.88,138.52 C157.88,139.693333 157.533333,140.72 156.84,141.6 C156.146667,142.48 155.186667,143.106667 153.96,143.48 L153.56,143.56 C153.186667,143.56 152.813333,143.44 152.44,143.2 C152.066667,142.96 151.826667,142.733333 151.72,142.52 L150.44,139.24 C150.226667,138.706667 149.853333,137.786667 149.32,136.48 C148.786667,135.173333 148.253333,134.04 147.72,133.08 L147.64,132.76 Z M166.6,187.96 C171.56,184.226667 175.666667,180.453333 178.92,176.64 C182.173333,172.826667 185.4,168.36 188.6,163.24 C189.826667,161.053333 190.546667,159.586667 190.76,158.84 C191.026667,157.88 191.586667,157.4 192.44,157.4 C192.76,157.4 193.24,157.533333 193.88,157.8 C194.573333,158.12 195.84,159.093333 197.68,160.72 C199.52,162.346667 200.68,163.506667 201.16,164.2 C201.32,164.52 201.4,164.813333 201.4,165.08 C201.4,165.56 201.213333,166.053333 200.84,166.56 C200.466667,167.066667 200,167.626667 199.44,168.24 C198.88,168.853333 198.413333,169.373333 198.04,169.8 C194.84,173.693333 191.92,176.786667 189.28,179.08 C186.64,181.373333 183.68,183.306667 180.4,184.88 C177.12,186.453333 172.946667,187.933333 167.88,189.32 L166.84,189.4 C166.04,189.4 165.64,189.266667 165.64,189 C165.64,188.733333 165.96,188.386667 166.6,187.96 Z M172.76,141.8 C175.106667,139.773333 177.093333,137.76 178.72,135.76 C180.346667,133.76 181.626667,131.986667 182.56,130.44 C183.493333,128.893333 184.626667,126.866667 185.96,124.36 C186.92,122.226667 187.426667,120.76 187.48,119.96 C187.533333,119.373333 187.666667,118.946667 187.88,118.68 C188.093333,118.413333 188.413333,118.28 188.84,118.28 L189.88,118.44 C190.946667,118.813333 192.133333,119.426667 193.44,120.28 C194.746667,121.133333 195.72,121.96 196.36,122.76 C196.946667,123.4 197.24,124.066667 197.24,124.76 C197.24,125.24 197.106667,125.706667 196.84,126.16 C196.573333,126.613333 196.12,127.266667 195.48,128.12 C189.826667,135.64 182.546667,140.76 173.64,143.48 C173.533333,143.533333 173.32,143.56 173,143.56 C172.36,143.56 172.04,143.373333 172.04,143 C172.04,142.68 172.28,142.28 172.76,141.8 Z M173.24,158.84 C176.973333,156.173333 179.813333,153.706667 181.76,151.44 C183.706667,149.173333 185.72,146.413333 187.8,143.16 C188.813333,141.506667 189.48,140.173333 189.8,139.16 C190.013333,138.573333 190.24,138.16 190.48,137.92 C190.72,137.68 191.026667,137.56 191.4,137.56 C192.253333,137.56 193.52,138.16 195.2,139.36 C196.88,140.56 197.986667,141.64 198.52,142.6 C198.786667,143.08 198.92,143.586667 198.92,144.12 C198.92,144.706667 198.76,145.226667 198.44,145.68 C198.12,146.133333 197.693333,146.626667 197.16,147.16 C196.626667,147.693333 196.173333,148.146667 195.8,148.52 C192.333333,151.986667 188.8,154.693333 185.2,156.64 C181.6,158.586667 177.746667,159.933333 173.64,160.68 L173.32,160.76 C173.053333,160.76 172.813333,160.693333 172.6,160.56 C172.386667,160.426667 172.28,160.253333 172.28,160.04 C172.28,159.666667 172.6,159.266667 173.24,158.84 Z" id="形状" fill="#FFFBF0" fill-rule="nonzero" mask="url(#mask-2)"></path>
                <path d="M-17.1089671,87.528125 C-19.0219448,88.0086806 -20.456678,88.2489583 -21.4131669,88.2489583 C-23.804389,88.2489583 -25,87.5881944 -25,86.2666667 C-25,85.3055556 -24.1630723,83.9840278 -22.4892168,82.3020833 C-13.5221339,73.6520833 -5.57132047,64.1611111 1.36322361,53.8291667 C8.29776769,43.4972222 13.7975785,33.7359375 17.8626561,24.5453125 C21.9277336,15.3546875 24.4385168,7.99618056 25.3950057,2.46979167 C25.8732501,-0.413541667 26.5607264,-2.54600694 27.4574347,-3.92760417 C28.354143,-5.30920139 29.5796443,-6 31.1339387,-6 C32.3295498,-6 34.0631858,-5.51944444 36.3348468,-4.55833333 C39.5629966,-3.35694444 42.7612561,-1.58489583 45.9296254,0.7578125 C49.0979947,3.10052083 51.399546,5.41319444 52.8342792,7.69583333 C53.7907681,9.1375 54.2690125,10.4590278 54.2690125,11.6604167 C54.2690125,12.7416667 53.7907681,13.8829861 52.8342792,15.084375 C52.7147181,15.3246528 51.7582293,16.5861111 49.9648127,18.86875 L45.3019296,24.9958333 C47.2149073,24.275 48.6496406,23.7944444 49.6061294,23.5541667 C50.323496,23.3138889 51.6685585,22.8633681 53.6413167,22.2026042 C55.6140749,21.5418403 57.3776012,21.0612847 58.9318956,20.7609375 C60.4861899,20.4605903 62.0404843,20.3104167 63.5947787,20.3104167 C66.3446841,20.3104167 69.6326145,21.1814236 73.4585698,22.9234375 C77.2845252,24.6654514 80.4528944,26.4375 82.9636776,28.2395833 C86.1918275,30.8826389 87.8059024,33.0451389 87.8059024,34.7270833 C87.8059024,36.6493056 86.251608,38.5114583 83.1430193,40.3135417 C76.8062807,43.7975694 70.7086644,48.4829861 64.8501703,54.3697917 L70.7684449,53.1083333 C71.8444949,52.7479167 73.697692,52.2072917 76.3280363,51.4864583 C78.9583806,50.765625 81.4691638,49.8645833 83.8603859,48.7833333 C86.0124858,47.7020833 87.6863413,47.4017361 88.8819523,47.8822917 C91.2731744,48.4829861 94.2323118,49.9546875 97.7593644,52.2973958 C101.286417,54.6401042 103.946652,56.7125 105.740068,58.5145833 C107.174801,59.95625 107.892168,61.3979167 107.892168,62.8395833 C107.892168,63.8006944 107.593265,64.7618056 106.99546,65.7229167 C104.484677,70.2881944 100.838063,80.5 96.0556186,96.3583333 C94.9795687,99.9625 93.8138479,102.575521 92.5584563,104.197396 C91.3030647,105.819271 89.5395384,107.230903 87.2678774,108.432292 C86.789633,108.672569 86.1320469,108.792708 85.2951192,108.792708 C84.2190692,108.792708 83.1430193,108.402257 82.0669694,107.621354 C80.9909194,106.840451 79.7953084,105.609028 78.4801362,103.927083 C73.5781309,104.2875 63.0567537,105.308681 46.9160045,106.990625 C38.0684828,107.951736 31.9708664,108.6125 28.6231555,108.972917 L28.4438138,119.785417 C28.4438138,125.672222 28.8024972,130.117361 29.5198638,133.120833 C30.2372304,136.124306 31.8214151,138.436979 34.2724177,140.058854 C36.7234204,141.680729 40.579266,142.731944 45.8399546,143.2125 C47.8724934,143.452778 51.1006432,143.572917 55.5244041,143.572917 C62.5785093,143.572917 70.1407491,143.152431 78.2111237,142.311458 C86.2814983,141.470486 92.2894438,140.689583 96.2349603,139.96875 C100.419599,139.127778 103.528188,137.776215 105.560726,135.914063 C107.593265,134.05191 109.027998,131.739236 109.864926,128.976042 C110.701854,126.212847 111.718123,121.467361 112.913734,114.739583 C113.51154,112.577083 114.527809,111.495833 115.962543,111.495833 C117.397276,111.495833 118.473326,112.577083 119.190692,114.739583 C119.549376,115.820833 120.236852,117.923264 121.253121,121.046875 C122.269391,124.170486 123.435112,127.113889 124.750284,129.877083 C126.065456,132.640278 127.679531,135.463542 129.592509,138.346875 C131.86417,141.830903 133,144.834375 133,147.357292 C133,151.682292 129.652289,155.226389 122.956867,157.989583 C115.783201,160.872917 106.786228,163.095486 95.9659478,164.657292 C85.1456678,166.219097 74.1759364,167 63.0567537,167 C46.7964434,167 34.2425274,165.558333 25.3950057,162.675 C17.8626561,160.152083 12.5720772,156.247569 9.52326901,150.961458 C6.47446084,145.675347 5.06961786,138.947569 5.30874007,130.778125 L5.48808173,126.99375 C6.32500946,112.456944 6.74347333,101.344097 6.74347333,93.6552083 C6.74347333,88.1288194 6.56413167,82.9628472 6.20544835,78.1572917 C6.20544835,77.6767361 6.08588725,76.715625 5.84676504,75.2739583 C-1.32690125,80.6802083 -8.97881196,84.7649306 -17.1089671,87.528125 Z M21.2977528,62 L42.4325843,58.4227642 L52.4438202,41.9674797 C52.8146067,41.6097561 53,41.2520325 53,40.8943089 C53,40.4173442 52.6292135,40.1788618 51.8876404,40.1788618 L50.0337079,40.5365854 C48.9213483,40.8943089 47.6544944,41.3116531 46.2331461,41.7886179 C44.8117978,42.2655827 43.6067416,42.504065 42.6179775,42.504065 C41.3820225,42.504065 39.8988764,42.0867209 38.1685393,41.2520325 L36.1292135,40 C30.5674157,48.4661247 25.1910112,55.501355 20,61.1056911 L21.2977528,62 Z M28,93 C29.5342466,92.8782051 33.369863,92.3910256 39.5068493,91.5384615 C39.8356164,86.7884615 40,83.1346154 40,80.5769231 C40,77.6538462 39.890411,75.4615385 39.6712329,74 C36.8219178,74.6089744 34.5479452,75.0352564 32.8493151,75.2788462 C31.1506849,75.5224359 29.9178082,75.7051282 29.1506849,75.8269231 L28.8219178,80.9423077 C28.3835616,84.7179487 28.109589,88.7371795 28,93 Z M77.5742574,87.0755064 L77.9306931,86.0257827 C78.2871287,84.1596071 78.6435644,79.0859423 79,70.8047882 C79,69.1718846 78.049505,68.6470227 76.1485149,69.2302026 C66.8811881,70.6298343 62.2475248,71.3296501 62.2475248,71.3296501 C62.960396,72.0294659 63.3168317,73.0791897 63.3168317,74.4788214 C63.3168317,75.5285451 63.1386139,76.7532228 62.7821782,78.1528545 L61,89 L77.5742574,87.0755064 Z" id="形状" fill="#FFFBF0" fill-rule="nonzero" mask="url(#mask-2)"></path>
            </g>
        </g>
    </g>
</svg>