<?xml version="1.0" encoding="UTF-8"?>
<svg width="200px" height="200px" viewBox="0 0 200 200" version="1.1" xmlns="http://www.w3.org/2000/svg" xmlns:xlink="http://www.w3.org/1999/xlink">
    <title>编组</title>
    <defs>
        <rect id="path-1" x="0" y="0" width="200" height="200" rx="40"></rect>
    </defs>
    <g id="页面-1" stroke="none" stroke-width="1" fill="none" fill-rule="evenodd">
        <g id="home" transform="translate(-1033, -471)">
            <g id="编组" transform="translate(1033, 471)">
                <mask id="mask-2" fill="white">
                    <use xlink:href="#path-1"></use>
                </mask>
                <use id="矩形" fill="#FFFBF0" xlink:href="#path-1"></use>
                <circle id="椭圆形" fill="#B7AE8F" mask="url(#mask-2)" cx="166" cy="40" r="20"></circle>
                <path d="M100.012317,177.373344 C99.5399023,177.373344 99.2249593,177.217459 99.0674878,176.90569 C98.9100163,176.59392 99.0281199,176.282151 99.4217986,175.970382 C103.988472,171.683554 108.358306,166.363991 112.531301,160.011691 C116.704295,153.659392 120.011197,147.599376 122.452005,141.831645 C119.617518,142.533125 116.861767,143.312549 114.184751,144.169914 C113.712337,144.325799 113.043083,144.403741 112.17699,144.403741 C110.523539,144.403741 109.263767,143.975058 108.397674,143.117693 C106.901695,142.0265 105.681291,141.01325 104.736462,140.077942 C103.791633,139.142634 102.886172,137.856586 102.020078,136.219797 C101.705135,135.674201 101.547664,135.167576 101.547664,134.699922 C101.547664,133.842557 102.138182,133.413874 103.319218,133.413874 C108.673249,133.335931 116.389352,132.322681 126.467528,130.374123 C126.073849,127.5682 125.640803,125.463757 125.168388,124.060795 L125.168388,123.826968 C125.168388,123.593141 125.247124,123.3788 125.404595,123.183944 C125.562067,122.989088 125.758906,122.89166 125.995114,122.89166 C127.333621,122.969602 128.849284,123.183944 130.542103,123.534684 C132.234922,123.885425 133.789953,124.333593 135.207196,124.879189 C138.514097,120.748246 141.132061,116.617303 143.061087,112.48636 C144.990113,108.355417 145.993993,104.964926 146.072729,102.314887 C146.072729,101.145752 146.210517,100.444271 146.486092,100.210444 C146.761667,99.9766173 147.371869,99.9376461 148.316698,100.093531 C149.655206,100.327358 151.407076,101.145752 153.572309,102.548714 C155.737542,103.951676 157.450045,105.237724 158.709817,106.406859 C159.260967,106.874513 159.536542,107.45908 159.536542,108.160561 C159.536542,109.095869 159.142863,109.992206 158.355506,110.849571 C156.387112,113.031956 153.611677,115.584567 150.029201,118.507405 C146.446724,121.430242 142.372149,123.982853 137.805476,126.165238 C138.671569,126.710834 139.262087,127.217459 139.57703,127.685113 C144.301175,126.671863 147.411237,125.931411 148.907216,125.463757 C150.009517,125.22993 150.914978,125.113016 151.623599,125.113016 C152.647164,125.113016 153.710097,125.385814 154.812397,125.931411 C156.308376,126.710834 157.568148,127.899454 158.591713,129.497272 C159.615278,131.09509 160.363267,132.751364 160.835682,134.466095 C161.150625,135.323461 161.012837,136.044427 160.422319,136.628995 C159.831801,137.213562 158.82792,137.505846 157.410677,137.505846 C151.899175,137.505846 145.836522,137.934528 139.222719,138.791894 L139.222719,141.831645 C141.033641,142.143414 143.159507,142.68901 145.600315,143.468433 C148.041123,144.247857 150.245724,145.105222 152.214118,146.04053 C154.02504,146.819953 155.402915,147.930631 156.347744,149.372564 C157.292573,150.814497 157.764988,152.392829 157.764988,154.10756 C157.764988,155.822292 157.272889,157.498051 156.288692,159.13484 C155.304496,160.771629 153.946304,162.057677 152.214118,162.992985 C151.741703,163.14887 151.348024,163.226812 151.033081,163.226812 C149.694574,163.226812 148.82848,162.798129 148.434802,161.940764 C146.781351,158.901013 143.750025,154.41933 139.340823,148.495713 C139.340823,159.641465 139.419559,167.942323 139.57703,173.398285 C139.734502,177.840998 139.321139,181.718628 138.336942,185.031177 C137.352745,188.343726 136.033921,190 134.380471,190 C132.412077,190 129.971269,188.363211 127.058046,185.089634 C125.247124,182.829306 124.538502,180.452065 124.932181,177.957911 C125.87701,173.671083 126.467528,169.033515 126.703735,164.045207 C126.703735,163.577553 126.743103,162.739673 126.821839,161.531567 C126.900575,160.323461 126.97931,158.706157 127.058046,156.679657 C123.199994,162.13562 118.987632,166.753702 114.420959,170.533905 C109.854285,174.314108 105.13014,176.59392 100.248524,177.373344 L100.012317,177.373344 Z M106.234483,110.783217 C106.078161,110.624709 106,110.386946 106,110.06993 C106,109.752914 106.136782,109.534965 106.410345,109.416084 C106.683908,109.297203 107.172414,109.198135 107.875862,109.118881 C108.57931,109.039627 109.634483,109 111.041379,109 C113.777011,109 116.278161,109.594406 118.544828,110.783217 C119.951724,111.575758 121.045977,112.645688 121.827586,113.993007 C122.609195,115.340326 123,116.7669 123,118.272727 C123,119.778555 122.550575,121.185315 121.651724,122.493007 C120.752874,123.800699 119.443678,124.890443 117.724138,125.762238 C117.411494,125.920746 117.137931,126 116.903448,126 C116.121839,126 115.262069,125.445221 114.324138,124.335664 C111.510345,118.470862 108.813793,113.95338 106.234483,110.783217 Z M109.766917,101.13376 C112.829574,100.260106 116.579365,98.8702011 121.016291,96.9640463 C125.453216,95.0578915 129.615288,92.8340443 133.502506,90.2925046 C137.389724,87.7509649 140.11863,85.2491367 141.689223,82.7870201 C142.31746,81.5956734 142.984962,81 143.691729,81 C144.241437,81 144.948204,81.3971156 145.81203,82.1913467 C147.539683,83.7798091 149.247703,85.5668292 150.93609,87.5524071 C152.624478,89.537985 153.822055,91.1264473 154.528822,92.317794 C154.842941,92.953179 155,93.4694292 155,93.8665448 C155,95.1373146 153.900585,96.2492383 151.701754,97.2023157 C147.068505,99.2673167 141.198413,100.935202 134.091479,102.205972 C126.984545,103.476742 119.072682,104.072415 110.35589,103.992992 C109.727652,103.992992 109.177945,103.834146 108.706767,103.516453 C108.235589,103.198761 108,102.841357 108,102.444241 C108,102.205972 108.157059,101.947847 108.471178,101.669866 C108.785297,101.391885 109.21721,101.213183 109.766917,101.13376 Z M122,106.280822 C122,105.426941 122.859375,105 124.578125,105 C126.296875,105 128.09375,105.329909 129.96875,105.989726 C131.84375,106.649543 133.367188,107.600457 134.539063,108.842466 C136.179688,110.550228 137,112.490868 137,114.664384 C137,116.372146 136.492188,117.866438 135.476563,119.14726 C134.460937,120.428082 133.054688,121.340183 131.257813,121.883562 L130.671875,122 C130.125,122 129.578125,121.825342 129.03125,121.476027 C128.484375,121.126712 128.132813,120.796804 127.976563,120.486301 L126.101563,115.712329 C125.789063,114.936073 125.242188,113.597032 124.460938,111.695205 C123.679688,109.793379 122.898438,108.143836 122.117188,106.746575 L122,106.280822 Z M150.422819,186.885 C157.774049,181.401667 163.860552,175.859583 168.682327,170.25875 C173.504101,164.657917 178.286353,158.0975 183.029083,150.5775 C184.847129,147.365833 185.914243,145.211667 186.230425,144.115 C186.625652,142.705 187.45563,142 188.720358,142 C189.194631,142 189.90604,142.195833 190.854586,142.5875 C191.882177,143.0575 193.759508,144.487083 196.486577,146.87625 C199.213647,149.265417 200.932886,150.969167 201.644295,151.9875 C201.881432,152.4575 202,152.888333 202,153.28 C202,153.985 201.723341,154.709583 201.170022,155.45375 C200.616704,156.197917 199.925056,157.020417 199.095078,157.92125 C198.265101,158.822083 197.573453,159.585833 197.020134,160.2125 C192.277405,165.930833 187.949664,170.474167 184.036913,173.8425 C180.124161,177.210833 175.737136,180.050417 170.875839,182.36125 C166.014541,184.672083 159.829232,186.845833 152.319911,188.8825 L150.778523,189 C149.592841,189 149,188.804167 149,188.4125 C149,188.020833 149.474273,187.511667 150.422819,186.885 Z M159.057143,119.424051 C162.502646,116.457806 165.419577,113.511076 167.807937,110.583861 C170.196296,107.656646 172.075661,105.061181 173.446032,102.797468 C174.816402,100.533755 176.480423,97.5675105 178.438095,93.8987342 C179.847619,90.7763713 180.591534,88.6297468 180.669841,87.4588608 C180.748148,86.600211 180.943915,85.9757384 181.257143,85.585443 C181.57037,85.1951477 182.040212,85 182.666667,85 L184.193651,85.2341772 C185.759788,85.7805907 187.502116,86.67827 189.420635,87.9272152 C191.339153,89.1761603 192.768254,90.3860759 193.707937,91.556962 C194.569312,92.4936709 195,93.4694093 195,94.4841772 C195,95.1867089 194.804233,95.8697257 194.412698,96.5332278 C194.021164,97.19673 193.355556,98.1529536 192.415873,99.4018987 C184.115344,110.408228 173.426455,117.901899 160.349206,121.882911 C160.192593,121.96097 159.879365,122 159.409524,122 C158.469841,122 158,121.726793 158,121.18038 C158,120.712025 158.352381,120.126582 159.057143,119.424051 Z M160.405405,144.186207 C165.870871,140.278161 170.028529,136.663218 172.878378,133.341379 C175.728228,130.01954 178.675676,125.974713 181.720721,121.206897 C183.204204,118.783908 184.18018,116.829885 184.648649,115.344828 C184.960961,114.485057 185.292793,113.87931 185.644144,113.527586 C185.995495,113.175862 186.444444,113 186.990991,113 C188.24024,113 190.094595,113.87931 192.554054,115.637931 C195.013514,117.396552 196.633634,118.97931 197.414414,120.386207 C197.804805,121.089655 198,121.832184 198,122.613793 C198,123.473563 197.765766,124.235632 197.297297,124.9 C196.828829,125.564368 196.204204,126.287356 195.423423,127.068966 C194.642643,127.850575 193.978979,128.514943 193.432432,129.062069 C188.357357,134.142529 183.184685,138.109195 177.914414,140.962069 C172.644144,143.814943 167.003003,145.788506 160.990991,146.882759 L160.522523,147 C160.132132,147 159.780781,146.902299 159.468468,146.706897 C159.156156,146.511494 159,146.257471 159,145.944828 C159,145.397701 159.468468,144.811494 160.405405,144.186207 Z" id="形状" fill-opacity="0.8" fill="#B7AE8F" fill-rule="nonzero" mask="url(#mask-2)"></path>
                <path d="M-17.9580023,96.25625 C-19.6651532,96.6840278 -20.9455165,96.8979167 -21.7990919,96.8979167 C-23.9330306,96.8979167 -25,96.3097222 -25,95.1333333 C-25,94.2777778 -24.2531215,93.1013889 -22.7593644,91.6041667 C-14.7570942,83.9041667 -7.66174801,75.4555556 -1.47332577,66.2583333 C4.71509648,57.0611111 9.62315551,48.371875 13.2508513,40.190625 C16.8785471,32.009375 19.1191827,25.4590278 19.9727582,20.5395833 C20.399546,17.9729167 21.0130533,16.0746528 21.8132804,14.8447917 C22.6135074,13.6149306 23.707151,13 25.0942111,13 C26.1611805,13 27.708286,13.4277778 29.7355278,14.2833333 C32.6163451,15.3527778 35.4704881,16.9302083 38.2979569,19.015625 C41.1254257,21.1010417 43.1793417,23.1597222 44.4597049,25.1916667 C45.3132804,26.475 45.7400681,27.6513889 45.7400681,28.7208333 C45.7400681,29.6833333 45.3132804,30.6993056 44.4597049,31.76875 C44.3530079,31.9826389 43.4994325,33.1055556 41.8989784,35.1375 L37.737798,40.5916667 C39.4449489,39.95 40.7253121,39.5222222 41.5788876,39.3083333 C42.2190692,39.0944444 43.4194098,38.6934028 45.1799092,38.1052083 C46.9404086,37.5170139 48.5141884,37.0892361 49.9012486,36.821875 C51.2883087,36.5545139 52.6753689,36.4208333 54.0624291,36.4208333 C56.5164586,36.4208333 59.4506243,37.1961806 62.8649262,38.746875 C66.2792281,40.2975694 69.1066969,41.875 71.3473326,43.4791667 C74.2281498,45.8319444 75.6685585,47.7569444 75.6685585,49.2541667 C75.6685585,50.9652778 74.2814983,52.6229167 71.507378,54.2270833 C65.8524404,57.3284722 60.4108967,61.4993056 55.1827469,66.7395833 L60.4642452,65.6166667 C61.4245176,65.2958333 63.0783201,64.8145833 65.4256527,64.1729167 C67.7729852,63.53125 70.0136209,62.7291667 72.1475596,61.7666667 C74.0681044,60.8041667 75.5618615,60.5368056 76.6288309,60.9645833 C78.7627696,61.4993056 81.4035187,62.809375 84.5510783,64.8947917 C87.6986379,66.9802083 90.0726447,68.825 91.6730988,70.4291667 C92.953462,71.7125 93.5936436,72.9958333 93.5936436,74.2791667 C93.5936436,75.1347222 93.3269012,75.9902778 92.7934166,76.8458333 C90.5527809,80.9097222 87.2985244,90 83.030647,104.116667 C82.0703746,107.325 81.0300795,109.651042 79.9097616,111.094792 C78.7894438,112.538542 77.215664,113.795139 75.1884222,114.864583 C74.7616345,115.078472 74.1748014,115.185417 73.4279228,115.185417 C72.4676504,115.185417 71.507378,114.837847 70.5471056,114.142708 C69.5868331,113.447569 68.5198638,112.351389 67.3461975,110.854167 C62.9716232,111.175 53.5822928,112.084028 39.1782066,113.58125 C31.2826334,114.436806 25.8410897,115.025 22.8535755,115.345833 L22.6935301,124.970833 C22.6935301,130.211111 23.0136209,134.168056 23.6538025,136.841667 C24.2939841,139.515278 25.7077185,141.573958 27.8950057,143.017708 C30.0822928,144.461458 33.523269,145.397222 38.2179342,145.825 C40.0317821,146.038889 42.9125993,146.145833 46.8603859,146.145833 C53.1555051,146.145833 59.9040863,145.771528 67.1061294,145.022917 C74.3081725,144.274306 79.6696935,143.579167 83.1906924,142.9375 C86.9250851,142.188889 89.6992054,140.985764 91.5130533,139.328125 C93.3269012,137.670486 94.6072645,135.611806 95.354143,133.152083 C96.1010216,130.692361 97.0079455,126.468056 98.0749149,120.479167 C98.6083995,118.554167 99.5153235,117.591667 100.795687,117.591667 C102.07605,117.591667 103.036322,118.554167 103.676504,120.479167 C103.996595,121.441667 104.610102,123.313194 105.517026,126.09375 C106.42395,128.874306 107.464245,131.494444 108.637911,133.954167 C109.811578,136.413889 111.251986,138.927083 112.959137,141.49375 C114.986379,144.595139 116,147.26875 116,149.514583 C116,153.364583 113.012486,156.519444 107.037457,158.979167 C100.635641,161.545833 92.6066969,163.524306 82.9506243,164.914583 C73.2945516,166.304861 63.5051078,167 53.5822928,167 C39.0715096,167 27.8683314,165.716667 19.9727582,163.15 C13.2508513,160.904167 8.52951192,157.428472 5.80874007,152.722917 C3.08796822,148.017361 1.83427923,142.028472 2.0476731,134.75625 L2.2077185,131.3875 C2.95459705,118.447222 3.32803632,108.554861 3.32803632,101.710417 C3.32803632,96.7909722 3.16799092,92.1923611 2.84790011,87.9145833 C2.84790011,87.4868056 2.74120318,86.63125 2.52780931,85.3479167 C-3.87400681,90.1604167 -10.7026107,93.7965278 -17.9580023,96.25625 Z M16.1404494,74 L34.7134831,70.7479675 L43.511236,55.7886179 C43.8370787,55.4634146 44,55.1382114 44,54.8130081 C44,54.3794038 43.6741573,54.1626016 43.0224719,54.1626016 L41.3932584,54.4878049 C40.4157303,54.8130081 39.3024345,55.1924119 38.0533708,55.6260163 C36.8043071,56.0596206 35.7453184,56.2764228 34.8764045,56.2764228 C33.7902622,56.2764228 32.4868914,55.897019 30.9662921,55.1382114 L29.1741573,54 C24.2865169,61.696477 19.5617978,68.0921409 15,73.1869919 L16.1404494,74 Z M22,101 C23.4063927,100.891026 26.9223744,100.455128 32.5479452,99.6923077 C32.8493151,95.4423077 33,92.1730769 33,89.8846154 C33,87.2692308 32.8995434,85.3076923 32.6986301,84 C30.086758,84.5448718 28.0022831,84.9262821 26.4452055,85.1442308 C24.8881279,85.3621795 23.7579909,85.525641 23.0547945,85.6346154 L22.7534247,90.2115385 C22.3515982,93.5897436 22.1004566,97.1858974 22,101 Z M66.7326733,96.2679558 L67.049505,95.3232044 C67.3663366,93.6436464 67.6831683,89.0773481 68,81.6243094 C68,80.1546961 67.1551155,79.6823204 65.4653465,80.2071823 C57.2277228,81.4668508 53.1089109,82.0966851 53.1089109,82.0966851 C53.7425743,82.7265193 54.0594059,83.6712707 54.0594059,84.9309392 C54.0594059,85.8756906 53.9009901,86.9779006 53.5841584,88.2375691 L52,98 L66.7326733,96.2679558 Z" id="形状" fill="#B7AE8F" fill-rule="nonzero" mask="url(#mask-2)"></path>
            </g>
        </g>
    </g>
</svg>