<?xml version="1.0" encoding="UTF-8"?>
<svg width="200px" height="200px" viewBox="0 0 200 200" version="1.1" xmlns="http://www.w3.org/2000/svg" xmlns:xlink="http://www.w3.org/1999/xlink">
    <title>编组</title>
    <defs>
        <rect id="path-1" x="0" y="0" width="200" height="200" rx="40"></rect>
    </defs>
    <g id="页面-1" stroke="none" stroke-width="1" fill="none" fill-rule="evenodd">
        <g id="home" transform="translate(-1033, -471)">
            <g id="编组" transform="translate(1033, 471)">
                <mask id="mask-2" fill="white">
                    <use xlink:href="#path-1"></use>
                </mask>
                <use id="矩形" fill="#DC0000" xlink:href="#path-1"></use>
                <circle id="椭圆形" fill="#FFFBF0" mask="url(#mask-2)" cx="166" cy="40" r="20"></circle>
                <path d="M-12.5618615,109.2625 C-15.0923193,109.895833 -16.9901627,110.2125 -18.2553916,110.2125 C-21.4184639,110.2125 -23,109.341667 -23,107.6 C-23,106.333333 -21.8929247,104.591667 -19.6787741,102.375 C-7.81725312,90.975 2.69996216,78.4666667 11.8728717,64.85 C21.0457813,51.2333333 28.3208475,38.36875 33.6980704,26.25625 C39.0752932,14.14375 42.3965191,4.44583333 43.661748,-2.8375 C44.2943625,-6.6375 45.2037457,-9.44791667 46.3898978,-11.26875 C47.5760499,-13.0895833 49.1971245,-14 51.2531215,-14 C52.8346576,-14 55.127885,-13.3666667 58.1328036,-12.1 C62.4029512,-10.5166667 66.6335603,-8.18125 70.8246311,-5.09375 C75.0157019,-2.00625 78.0601589,1.04166667 79.9580023,4.05 C81.2232312,5.95 81.8558456,7.69166667 81.8558456,9.275 C81.8558456,10.7 81.2232312,12.2041667 79.9580023,13.7875 C79.7998487,14.1041667 78.5346198,15.7666667 76.1623156,18.775 L69.9943246,26.85 C72.5247824,25.9 74.4226258,25.2666667 75.6878547,24.95 C76.6367764,24.6333333 78.4160045,24.0395833 81.0255392,23.16875 C83.6350738,22.2979167 85.9678396,21.6645833 88.0238365,21.26875 C90.0798335,20.8729167 92.1358305,20.675 94.1918275,20.675 C97.8293606,20.675 102.178585,21.8229167 107.239501,24.11875 C112.300416,26.4145833 116.491487,28.75 119.812713,31.125 C124.08286,34.6083333 126.217934,37.4583333 126.217934,39.675 C126.217934,42.2083333 124.161937,44.6625 120.049943,47.0375 C111.667802,51.6291667 103.601967,57.8041667 95.8524404,65.5625 L103.681044,63.9 C105.104427,63.425 107.555808,62.7125 111.035187,61.7625 C114.514567,60.8125 117.835793,59.625 120.998865,58.2 C123.84563,56.775 126.059781,56.3791667 127.641317,57.0125 C130.804389,57.8041667 134.718691,59.74375 139.384222,62.83125 C144.049754,65.91875 147.568672,68.65 149.940976,71.025 C151.83882,72.925 152.787741,74.825 152.787741,76.725 C152.787741,77.9916667 152.392357,79.2583333 151.601589,80.525 C148.280363,86.5416667 143.456678,100 137.130533,120.9 C135.707151,125.65 134.165153,129.09375 132.50454,131.23125 C130.843927,133.36875 128.511162,135.229167 125.506243,136.8125 C124.873628,137.129167 124.003784,137.2875 122.896708,137.2875 C121.473326,137.2875 120.049943,136.772917 118.626561,135.74375 C117.203178,134.714583 115.621642,133.091667 113.881952,130.875 C107.397654,131.35 93.4801362,132.695833 72.1293984,134.9125 C60.426031,136.179167 52.3601967,137.05 47.9318956,137.525 L47.6946652,151.775 C47.6946652,159.533333 48.169126,165.391667 49.1180477,169.35 C50.0669694,173.308333 52.1625047,176.35625 55.4046538,178.49375 C58.6468029,180.63125 63.7472569,182.016667 70.7060159,182.65 C73.3946273,182.966667 77.6647749,183.125 83.5164586,183.125 C92.8475218,183.125 102.850738,182.570833 113.526107,181.4625 C124.201476,180.354167 132.148695,179.325 137.367764,178.375 C142.90314,177.266667 147.015134,175.485417 149.703746,173.03125 C152.392357,170.577083 154.290201,167.529167 155.397276,163.8875 C156.504351,160.245833 157.848657,153.991667 159.430193,145.125 C160.220961,142.275 161.565267,140.85 163.46311,140.85 C165.360953,140.85 166.784336,142.275 167.733258,145.125 C168.207719,146.55 169.117102,149.320833 170.461407,153.4375 C171.805713,157.554167 173.347711,161.433333 175.087401,165.075 C176.82709,168.716667 178.962164,172.4375 181.492622,176.2375 C184.497541,180.829167 186,184.7875 186,188.1125 C186,193.8125 181.571699,198.483333 172.715096,202.125 C163.22588,205.925 151.32482,208.854167 137.011918,210.9125 C122.699016,212.970833 108.188422,214 93.4801362,214 C71.9712448,214 55.3651154,212.1 43.661748,208.3 C33.6980704,204.975 26.699773,199.829167 22.6668558,192.8625 C18.6339387,185.895833 16.7756337,177.029167 17.091941,166.2625 L17.3291714,161.275 C18.4362467,142.116667 18.9897843,127.470833 18.9897843,117.3375 C18.9897843,110.054167 18.7525539,103.245833 18.2780931,96.9125 C18.2780931,96.2791667 18.1199395,95.0125 17.8036322,93.1125 C8.31441544,100.2375 -1.80741582,105.620833 -12.5618615,109.2625 Z M39.6288309,75.5375 L66.6730988,70.7875 L79.4835414,48.9375 C79.9580023,48.4625 80.1952327,47.9875 80.1952327,47.5125 C80.1952327,46.8791667 79.7207719,46.5625 78.7718502,46.5625 L76.399546,47.0375 C74.9761635,47.5125 73.3550889,48.0666667 71.5363224,48.7 C69.7175558,49.3333333 68.1755581,49.65 66.9103292,49.65 C65.328793,49.65 63.4309497,49.0958333 61.2167991,47.9875 L58.6072645,46.325 C51.4903519,57.5666667 44.6106697,66.9083333 37.9682179,74.35 L39.6288309,75.5375 Z M48.8808173,115.9125 C51.0949678,115.754167 56.6303443,115.120833 65.4869467,114.0125 C65.9614075,107.8375 66.1986379,103.0875 66.1986379,99.7625 C66.1986379,95.9625 66.0404843,93.1125 65.7241771,91.2125 C61.6121831,92.0041667 58.3304956,92.5583333 55.8791146,92.875 C53.4277336,93.1916667 51.6485055,93.4291667 50.5414302,93.5875 L50.0669694,100.2375 C49.4343549,105.145833 49.0389709,110.370833 48.8808173,115.9125 Z M113.644722,108.55 L114.119183,107.125 C114.593644,104.591667 115.068104,97.7041667 115.542565,86.4625 C115.542565,84.2458333 114.277336,83.5333333 111.746879,84.325 C99.4108967,86.225 93.2429058,87.175 93.2429058,87.175 C94.1918275,88.125 94.6662883,89.55 94.6662883,91.45 C94.6662883,92.875 94.4290579,94.5375 93.954597,96.4375 L91.5822928,111.1625 L113.644722,108.55 Z" id="形状" fill="#FFFBF0" fill-rule="nonzero" mask="url(#mask-2)"></path>
            </g>
        </g>
    </g>
</svg>