<?xml version="1.0" encoding="UTF-8"?>
<svg width="512px" height="512px" viewBox="0 0 512 512" version="1.1" xmlns="http://www.w3.org/2000/svg" xmlns:xlink="http://www.w3.org/1999/xlink">
    <title>favicon</title>
    <g id="favicon" stroke="none" stroke-width="1" fill="none" fill-rule="evenodd">
        <rect id="base" fill="#C12C1F" x="0" y="0" width="512" height="512" rx="160"></rect>
        <path d="M-10.48,136.174777 C-8.1227256,134.510234 -0.697311234,126.544204 11.7962431,112.276688 C24.2897974,98.009172 35.9583057,84.0983439 46.801768,70.5442038 C57.6452302,56.9900637 62.9490976,49.4996178 62.7133702,48.0728662 C66.0135543,43.7926115 68.3708287,40.5824204 69.7851934,38.442293 C74.7354696,30.8329512 79.0964273,25.3637367 82.8680663,22.0346497 C81.9251565,20.84569 80.8643831,17.6949469 79.6857459,12.5824204 C78.5071087,7.46989384 77.6820626,3.24908705 77.2106077,-0.08 L95.5973481,-0.08 C108.798085,-0.08 119.170092,1.28730361 126.71337,4.02191083 C134.256648,6.75651805 140.385562,12.6418684 145.10011,21.6779618 C140.857017,25.4826327 136.731786,30.7140552 132.72442,37.3722293 C130.602873,40.9391083 128.009871,44.6248832 124.945414,48.4295541 L133.431602,48.0728662 C141.446335,47.8350743 147.221657,47.4783864 150.757569,47.0028025 C154.293481,46.5272187 160.30453,45.9327389 168.790718,45.2193631 C173.26954,44.2681953 178.809134,41.890276 185.409503,38.0856051 C189.416869,35.7076858 193.070645,33.8647983 196.370829,32.5569427 C199.671013,31.249087 203.560516,30.4762633 208.039337,30.2384713 C209.453702,31.427431 211.92884,32.3191507 215.464751,32.9136306 C219.000663,33.5081104 221.240074,33.9242463 222.182983,34.1620382 C227.604715,37.7289172 233.438969,42.2469639 239.685746,47.7161783 C245.932523,53.1853928 249.291639,57.8223355 249.763094,61.6270064 C206.153517,89.4486624 177.159042,105.618514 162.779669,110.136561 C175.744678,109.185393 188.532891,108.115329 201.144309,106.926369 C213.755727,105.73741 222.300847,104.905138 226.779669,104.429554 C229.608398,103.716178 233.497901,102.170531 238.448177,99.7926115 C241.748361,97.890276 245.048545,96.4040764 248.348729,95.3340127 C251.648913,94.263949 256.127735,93.7289172 261.785193,93.7289172 C262.728103,94.442293 267.089061,97.4146921 274.868066,102.646115 C283.354254,108.115329 290.308214,113.227856 295.729945,117.983694 C296.2014,120.361614 296.437127,121.788365 296.437127,122.263949 C296.437127,123.928493 295.847808,125.652484 294.669171,127.435924 C293.490534,129.219363 292.665488,130.348875 292.194033,130.824459 C287.950939,135.818089 283.943573,142.000679 280.171934,149.372229 C278.757569,152.225732 277.225341,161.261826 275.575249,176.48051 C273.453702,193.125945 271.391087,206.263949 269.387403,215.894522 C267.38372,225.525096 264.496059,230.934862 260.72442,232.123822 C257.895691,233.312781 255.774144,233.907261 254.359779,233.907261 C251.295322,233.907261 247.641547,232.242718 243.398453,228.913631 C239.862541,226.535711 237.387403,225.10896 235.973039,224.633376 C233.144309,223.92 228.429761,223.32552 221.829392,222.849936 C219.23639,222.849936 216.289797,222.612144 212.989613,222.136561 C208.746519,221.660977 203.442652,221.423185 197.078011,221.423185 C176.805451,221.423185 151.877274,222.612144 122.293481,224.990064 C92.7096869,227.367983 76.0319705,229.864798 72.2603315,232.48051 C69.6673297,236.28518 68.3708287,241.278811 68.3708287,247.461401 C68.3708287,253.168408 69.6083978,258.934862 72.0835359,264.760764 C74.558674,270.586667 77.4463352,275.164161 80.7465193,278.493248 C88.05407,284.913631 96.3634622,289.491125 105.674696,292.225732 C114.98593,294.96034 126.006188,296.327643 138.73547,296.327643 C146.98593,296.327643 157.299006,295.733163 169.674696,294.544204 C182.050387,293.355244 194.956464,291.928493 208.392928,290.263949 C234.794401,287.410446 248.70232,285.864798 250.116685,285.627006 C255.538416,284.675839 259.899374,281.584544 263.199558,276.353121 C266.499742,271.121699 270.624972,262.561189 275.575249,250.671592 C276.989613,246.866921 279.582615,240.684331 283.354254,232.123822 C287.597348,238.06862 291.958306,246.450786 296.437127,257.270318 C300.915948,268.089851 303.155359,278.73104 303.155359,289.193885 C304.569724,292.998556 305.512634,295.376476 305.984088,296.327643 C306.926998,298.705563 307.752044,301.083482 308.459227,303.461401 C309.166409,305.839321 309.52,308.455032 309.52,311.308535 C299.619448,319.155669 281.93989,325.219363 256.481326,329.499618 C231.022762,333.779873 201.674696,335.92 168.437127,335.92 C139.678379,335.92 111.50895,334.374352 83.9288398,331.283057 C75.4426519,329.618514 66.2492818,325.813843 56.3487293,319.869045 C46.4481768,313.924246 39.2584899,307.979448 34.7796685,302.03465 C31.4794843,298.229979 28.8864825,292.701316 27.000663,285.448662 C25.1148435,278.196008 24.1719337,270.646115 24.1719337,262.798981 C24.1719337,256.854183 24.6433886,251.860552 25.5862983,247.818089 L24.5255249,218.926369 C24.5255249,217.499618 25.0559116,213.576051 26.1166851,207.155669 C27.1774586,200.735287 29.0043462,176.361614 31.5973481,134.03465 C26.8827993,132.132314 22.6397053,129.397707 18.8680663,125.830828 C3.07432781,134.391338 -6.70836096,137.839321 -10.48,136.174777 L-10.48,136.174777 Z M214.757569,53.7798726 C214.757569,54.0176645 214.816501,54.4932484 214.934365,55.2066242 C215.052228,55.92 215.287956,56.2766879 215.641547,56.2766879 C215.995138,56.2766879 216.761252,56.038896 217.93989,55.5633121 C218.411344,55.3255202 218.882799,54.7310403 219.354254,53.7798726 L214.757569,53.7798726 L214.757569,53.7798726 Z M30.8901657,119.053758 C33.2474401,118.815966 37.0190792,118.69707 42.2050829,118.69707 C43.855175,118.69707 47.9804052,118.69707 54.5807735,118.69707 C61.1811418,118.69707 67.3100552,118.340382 72.9675138,117.627006 C87.5826151,114.773503 100.606556,112.692824 112.039337,111.384968 C123.472118,110.077113 134.610239,109.779873 145.453702,110.493248 C147.575249,107.164161 150.993297,102.289427 155.707845,95.8690446 C160.186667,90.1620382 163.486851,85.2873036 165.608398,81.2448408 C167.729945,77.2023779 169.380037,72.2087473 170.558674,66.263949 C169.144309,67.9284926 161.895691,70.2469639 148.812818,73.2193631 C135.729945,76.1917622 127.774144,78.0346497 124.945414,78.7480255 L111.862541,81.6015287 C109.740994,81.3637367 108.090902,80.7692569 106.912265,79.8180892 C105.733628,78.8669214 104.319263,77.3212739 102.669171,75.1811465 C101.490534,73.278811 100.311897,71.7926115 99.1332597,70.7225478 C97.9546225,69.6524841 96.3045304,68.9985563 94.1829834,68.7607643 C93.7115285,72.3276433 86.8165009,79.3425053 73.4979006,89.8053503 C60.1793002,100.268195 45.9767219,110.017665 30.8901657,119.053758 L30.8901657,119.053758 Z M255.420552,115.843567 C255.420552,118.934862 255.715212,121.491125 256.30453,123.512357 C256.893849,125.533588 257.306372,127.25758 257.542099,128.684331 C259.192192,129.635499 260.488692,132.132314 261.431602,136.174777 C262.374512,140.21724 263.553149,142.951847 264.967514,144.378599 C265.438969,144.854183 266.381878,145.329766 267.796243,145.80535 C268.031971,144.378599 268.444494,142.357367 269.033812,139.741656 C269.623131,137.125945 269.91779,134.03465 269.91779,130.467771 C265.203241,123.334013 260.370829,118.459278 255.420552,115.843567 L255.420552,115.843567 Z M175.862541,191.818089 C178.691271,192.293673 185.998821,192.769257 197.785193,193.244841 C214.050387,193.720425 226.19035,194.4338 234.205083,195.384968 C233.969355,194.671592 233.851492,193.363737 233.851492,191.461401 C233.851492,188.607898 234.794401,181.949724 236.680221,171.486879 C238.801768,158.170531 239.862541,149.253333 239.862541,144.735287 C239.862541,136.888153 237.976722,132.132314 234.205083,130.467771 L215.464751,130.467771 C195.899374,130.467771 183.759411,131.062251 179.044862,132.25121 C176.45186,137.720425 175.155359,147.469894 175.155359,161.499618 L175.50895,178.620637 C175.744678,181.949724 175.862541,186.348875 175.862541,191.818089 L175.862541,191.818089 Z M85.6967956,203.232102 C88.05407,202.518726 94.6544383,201.924246 105.497901,201.448662 C108.090902,201.21087 112.628656,200.913631 119.11116,200.556943 C125.593665,200.200255 130.485009,199.665223 133.785193,198.951847 C135.671013,185.397707 136.613923,165.660977 136.613923,139.741656 C126.949098,138.790488 105.615764,140.336136 72.6139227,144.378599 L72.6139227,149.372229 C74.0282873,151.036773 74.7354696,156.149299 74.7354696,164.709809 C74.7354696,172.319151 74.3229466,180.344628 73.4979006,188.786242 C72.6728545,197.227856 72.2603315,202.043142 72.2603315,203.232102 L85.6967956,203.232102 L85.6967956,203.232102 Z M64.8349171,295.614268 C66.7207366,298.229979 68.6065562,300.191762 70.4923757,301.499618 C72.3781952,302.807473 74.9711971,303.699193 78.2713812,304.174777 L78.2713812,303.104713 C74.0282873,301.202378 69.5494659,298.705563 64.8349171,295.614268 L64.8349171,295.614268 Z M70.1387845,277.423185 L71.9067403,277.423185 L71.9067403,275.283057 L70.1387845,275.283057 L70.1387845,277.423185 Z" id="se" fill="#FFFFFF" fill-rule="nonzero"></path>
        <path d="M369.056402,220.002801 C371.06477,225.056011 364.816513,229.889516 350.311632,234.503316 C335.80675,239.117116 317.396709,242.852097 295.081506,245.70826 C272.766304,248.564422 251.790014,249.992503 232.152636,249.992503 C218.094059,249.992503 207.048033,249.223536 199.014561,247.685602 C212.403682,243.511212 229.363236,238.458002 249.893222,232.525973 C270.423208,226.593944 287.271185,221.870292 300.437155,218.355015 C306.908563,216.817082 311.929484,214.784813 315.499916,212.258208 C319.070349,209.731603 321.580809,207.314851 323.031297,205.007951 C324.481785,202.70105 326.657517,198.581586 329.558494,192.649557 C330.22795,192.429852 331.34371,192.32 332.905774,192.32 C337.591967,192.32 342.724463,193.91286 348.303264,197.098579 C353.882064,200.284298 358.679833,204.074205 362.696569,208.468301 C366.713305,212.862396 368.83325,216.70723 369.056402,220.002801 L369.056402,220.002801 Z M486.880669,223.298373 C486.880669,223.298373 482.975509,227.143206 475.165188,234.832873 C470.702148,239.666378 466.852775,243.511212 463.617071,246.367374 C460.381367,249.223536 456.08569,252.18955 450.730042,255.265417 C436.671464,266.030951 424.955983,273.775544 415.583598,278.499197 C406.211213,283.222849 393.937852,287.232461 378.763515,290.528033 C386.350683,285.035414 393.045244,278.993532 398.847197,272.402389 C404.649149,265.811246 412.013166,256.693498 420.939247,245.049145 L436.002008,225.93483 C436.671464,225.056011 437.340921,224.06734 438.010377,222.968816 C438.679833,221.870292 439.572441,220.661916 440.688201,219.343687 C443.366025,215.828411 445.374393,212.752544 446.713305,210.116087 C448.052218,207.479629 448.721674,204.623467 448.721674,201.5476 C448.721674,198.252029 448.163794,195.286014 447.048033,192.649557 C455.750962,193.748081 464.398103,197.263357 472.989456,203.195386 C481.580809,209.127415 486.211213,215.828411 486.880669,223.298373 L486.880669,223.298373 Z M338.930879,247.685602 C339.377183,247.465898 340.269791,247.356045 341.608703,247.356045 C345.402287,247.356045 350.144268,248.344717 355.834644,250.32206 C361.525021,252.299403 366.267001,254.606303 370.060586,257.24276 C373.85417,259.879217 375.304658,262.29597 374.41205,264.493018 C373.519442,268.667408 370.283738,274.214954 364.704937,281.135654 C359.126137,288.056354 352.989456,294.482719 346.294895,300.414748 C339.600335,306.346777 334.356262,310.19161 330.562678,311.949248 L320.520837,317.222163 C322.529205,313.267477 325.207029,306.676334 328.55431,297.448733 C331.90159,288.221133 334.13311,282.069399 335.24887,278.993532 C336.36463,276.13737 337.815119,272.182685 339.600335,267.129475 C341.385551,262.076265 342.389735,259.659513 342.612887,259.879217 C342.166583,258.560989 341.608703,256.638572 340.939247,254.111967 C340.269791,251.585362 339.600335,249.443241 338.930879,247.685602 L338.930879,247.685602 Z M291.399498,298.437405 C290.953194,296.460062 288.386946,289.759066 283.700753,278.334418 C278.121953,265.811246 274.886248,257.462465 273.99364,253.288074 C278.679833,254.826008 286.601729,258.451136 297.759331,264.16346 C305.346499,268.557556 312.152636,271.853127 318.177741,274.050175 C318.847197,276.686632 319.181925,279.32309 319.181925,281.959547 C319.181925,289.868919 317.173556,296.844545 313.15682,302.886426 C309.140084,308.928308 304.565467,311.509839 299.432971,310.63102 C299.432971,310.850724 298.484575,309.03816 296.587782,305.193326 C294.69099,301.348493 292.961562,299.096519 291.399498,298.437405 L291.399498,298.437405 Z M256.253054,320.847291 C255.360446,321.286701 251.399498,316.892606 244.370209,307.665005 C237.340921,298.437405 230.702148,289.045026 224.453891,279.487868 C218.205635,269.930711 215.304658,264.383165 215.750962,262.845232 C219.990851,263.504346 225.402287,265.207058 231.985272,267.953368 C238.568257,270.699677 242.529205,272.402389 243.868117,273.061504 C256.141478,278.334418 264.174951,281.410285 267.968536,282.289104 C269.753752,286.463495 270.64636,291.187147 270.64636,296.460062 C270.64636,303.051205 269.25166,308.763529 266.462259,313.597034 C263.672859,318.430539 260.269791,320.847291 256.253054,320.847291 L256.253054,320.847291 Z M462.780251,302.721648 C466.796987,299.206371 469.697964,296.130505 471.48318,293.494047 C473.268396,290.85759 474.161004,287.452166 474.161004,283.277775 C474.161004,281.300433 474.049428,279.762499 473.826276,278.663975 C482.529205,281.739842 490.451102,286.902904 497.591967,294.153162 C504.732831,301.403419 507.745384,308.433972 506.629623,315.24482 C477.843013,336.775887 454.523626,351.935517 436.671464,360.723708 C418.819303,369.511898 401.971325,373.796141 386.127531,373.576437 C395.276764,368.523227 407.159609,359.295627 421.776067,345.893635 C436.392524,332.491644 447.940642,320.188177 456.420418,308.983234 L462.780251,302.721648 L462.780251,302.721648 Z M241.190293,280.641318 C241.413445,281.739842 241.692385,282.508809 242.027113,282.948218 C242.361841,283.387628 242.863933,283.93689 243.533389,284.596004 L243.533389,285.914233 C243.756541,285.914233 244.035481,285.749454 244.370209,285.419897 C244.704937,285.09034 244.872301,284.815709 244.872301,284.596004 C245.095453,284.376299 245.262817,284.156595 245.374393,283.93689 C245.485969,283.717185 245.764909,283.277775 246.211213,282.618661 C245.541757,281.959547 245.207029,281.410285 245.207029,280.970875 L241.190293,280.641318 L241.190293,280.641318 Z M382.110795,425.31691 C383.003403,425.976025 382.278159,429.21667 379.935063,435.038847 C377.591967,440.861023 374.858354,446.518421 371.734226,452.01104 C368.610098,457.503659 366.267001,460.359821 364.704937,460.579526 C360.911353,458.162774 353.212608,450.033697 341.608703,436.192297 C334.69099,427.843515 329.11219,421.362225 324.872301,416.748424 C320.632413,412.134624 317.06198,409.16861 314.161004,407.850381 L315.165188,432.896725 C316.280948,450.473107 316.838828,464.644065 316.838828,475.409598 C316.838828,486.614542 316.113584,495.347806 314.663096,501.609392 C313.212608,507.870978 310.702148,511.441181 307.131715,512.32 C302.668675,511.660886 299.154031,510.507436 296.587782,508.85965 C294.021534,507.211864 291.287922,504.850038 288.386946,501.774171 C284.816513,498.258895 281.803961,495.73229 279.349289,494.194356 C282.027113,492.436718 283.868117,488.811589 284.872301,483.31897 C285.876485,477.826351 286.378577,470.795798 286.378577,462.227312 C286.378577,455.636169 286.267001,450.692812 286.043849,447.39724 C286.043849,444.980487 285.988061,442.179252 285.876485,438.993532 C285.764909,435.807813 285.820697,432.347463 286.043849,428.612482 C278.902985,437.400673 269.697964,445.529749 258.428787,452.999712 C247.159609,460.469674 235.611492,466.401703 223.784435,470.795798 C211.957378,475.189894 201.469233,477.606646 192.32,478.046056 C235.611492,444.65093 264.286527,412.683886 278.345105,382.144923 L271.315816,383.133594 C246.545941,386.868575 229.80954,389.614885 221.106611,391.372523 C211.957378,388.736066 205.597545,378.300089 202.027113,360.064593 C202.919721,361.822231 206.601729,362.70105 213.073138,362.70105 C218.428787,362.70105 224.230739,362.151789 230.478996,361.053265 C234.27258,361.492674 243.533389,360.723708 258.261423,358.746365 C272.989456,356.769022 281.469233,355.011383 283.700753,353.47345 C284.593361,352.814336 285.039665,351.496107 285.039665,349.518764 C285.039665,346.882307 283.812329,341.719245 281.357657,334.029578 C279.795593,329.415778 279.014561,326.230058 279.014561,324.47242 C285.709121,324.033011 291.734226,323.813306 297.089874,323.813306 C306.015955,323.813306 313.15682,324.47242 318.512469,325.790649 C318.512469,326.449763 318.512469,329.965039 318.512469,336.336478 C318.512469,342.707916 318.177741,345.893635 317.508285,345.893635 C317.731437,346.11334 318.791409,346.827381 320.688201,348.035757 C322.584993,349.244133 324.202845,349.189207 325.541757,347.870978 C326.880669,347.211864 336.587782,346.11334 354.663096,344.575407 C362.250265,344.135997 366.490153,343.80644 367.382762,343.586735 L371.734226,349.848321 C375.304658,354.681826 378.094059,358.856217 380.102427,362.371493 C382.110795,365.88677 383.114979,368.962636 383.114979,371.599094 C383.114979,375.334075 380.437155,377.311418 375.081506,377.531123 C372.403682,376.872008 363.477601,376.542451 348.303264,376.542451 C326.434365,376.542451 316.5041,376.872008 318.512469,377.531123 C318.066165,379.508465 317.173556,381.595661 315.834644,383.792709 C314.495732,385.989756 313.826276,387.637542 313.826276,388.736066 L314.495732,391.372523 C318.735621,393.569571 325.653333,396.315881 335.24887,399.611452 C349.307448,404.664662 360.186109,409.058757 367.884854,412.793738 C375.583598,416.52872 380.325579,420.70311 382.110795,425.31691 L382.110795,425.31691 Z M478.177741,364.678393 C486.657517,366.436032 494.467838,371.104758 501.608703,378.684573 C508.749568,386.264387 512.32,394.228685 512.32,402.577467 C512.32,403.895695 512.096848,405.653333 511.650544,407.850381 L504.286527,414.441524 C502.055007,416.418867 498.484575,419.714439 493.57523,424.328239 C488.665886,428.942039 484.537573,433.006577 481.190293,436.521854 C468.247476,450.14355 457.257238,460.689379 448.219582,468.159341 C439.181925,475.629303 428.191688,481.616258 415.24887,486.120206 C402.306053,490.624154 386.573835,492.766275 368.052218,492.546571 C383.896011,485.735723 399.516653,474.366001 414.914142,458.437405 C430.311632,442.508809 446.043849,424.218387 462.110795,403.566138 C464.342315,400.709976 466.127531,397.579183 467.466444,394.173759 C468.805356,390.768335 470.255844,386.429166 471.817908,381.156251 C473.826276,373.905994 475.94622,368.413375 478.177741,364.678393 L478.177741,364.678393 Z M302.110795,487.603213 C302.333947,487.383508 302.780251,486.614542 303.449707,485.296313 L299.432971,485.296313 C300.325579,486.834246 300.883459,488.152475 301.106611,489.250999 L302.110795,487.603213 L302.110795,487.603213 Z" id="cai" fill="#FFFFFF" fill-rule="nonzero"></path>
    </g>
</svg>